<?xml version="1.0" encoding="utf-8" ?>
<svg xmlns="http://www.w3.org/2000/svg" xmlns:xlink="http://www.w3.org/1999/xlink" width="1024" height="1024">
	<path fill="#FEFEFE" d="M0 0L1024 0L1024 1024L0 1024L0 0Z"/>
	<path fill="#010101" d="M239.653 461.261C243.118 464.516 246.25 468.436 249.434 471.987Q259.935 483.663 270.179 495.565Q294.356 523.44 319.07 550.839C322.055 554.166 340.539 573.509 340.898 576.039C341.006 576.803 340.863 576.629 340.253 577.302C336.023 576.283 251.442 478.231 239.966 465.564C235.256 470.656 231.052 476.391 226.664 481.771Q216.513 494.096 206.156 506.25C199.86 514.619 110.895 622.18 110.743 622.247C110.129 622.514 109.748 622.098 109.205 621.827L108.993 620.762C110.939 615.807 144.749 576.35 150.667 569.213L219.03 486.428C225.952 478.141 232.382 469.217 239.653 461.261Z"/>
	<path fill="#F47A57" d="M501.148 267.624C507.891 263.621 512.21 255.874 520.671 254.96C527.203 254.254 530.852 257.411 535.614 261.102C535.557 261.277 535.477 261.445 535.441 261.626C534.262 267.557 541.319 272.666 531.243 280.566C526.888 283.981 520.668 284.921 515.29 284.163C506.905 282.98 497.656 279.867 489.953 285.331C485.904 288.203 482.901 293.573 482.17 298.446C481.465 303.152 483.004 307.327 485.192 311.41C483.863 310.806 482.6 309.973 481.48 309.035C476.695 305.028 474.646 298.409 474.335 292.356C473.99 285.652 474.872 277.238 479.697 272.189C485.162 266.469 493.971 267.651 501.148 267.624Z"/>
	<path fill="#4B71BE" d="M580.422 527.912C580.829 544.708 580.535 561.57 580.521 578.372Q580.736 621.854 579.932 665.33C579.731 676.65 580.263 688.049 579.959 699.338C574.738 687.827 571.781 674.978 567.965 662.938L544.304 587.904C552.38 587.932 570.273 587.026 577.363 588.495C578.463 589.223 578.594 589.58 579.957 589.529C580.719 585.087 580.114 579.535 580.103 574.955L580.031 545.748C580.028 539.849 579.746 533.774 580.422 527.912Z"/>
	<path fill="#010101" d="M777.577 840.097C767.701 769.52 765.889 696.072 785.448 626.924C791.563 605.304 799.878 583.271 813.597 565.241C820.807 555.764 830.589 547.621 842.755 546.06C852.322 544.832 861.781 548.458 869.234 554.321C902.667 580.62 917.649 650.146 922.212 690.39Q923.381 701.451 924.063 712.552Q924.745 723.654 924.938 734.774Q925.132 745.895 924.837 757.014Q924.541 768.132 923.758 779.227Q922.975 790.322 921.705 801.371Q920.435 812.421 918.681 823.404Q916.926 834.387 914.691 845.283Q912.456 856.178 909.745 866.965C906.53 880.169 902.123 892.962 898.549 906.052L933.154 906.035C940.157 906.02 947.348 905.67 954.319 906.351L955.056 907.099L954.997 908.273C953.962 908.974 953.61 909.035 952.327 909.089C942.249 909.518 931.838 908.968 921.724 908.973L857.755 909.069L742.501 909.021L713.417 909.106C709.593 909.121 704.511 909.786 700.835 908.966C699.781 908.731 699.786 908.666 699.18 907.723C699.29 907.189 699.347 906.534 699.592 906.048L852.761 906.031Q873.929 905.932 895.095 906.195Q897.596 898.97 899.872 891.672Q902.147 884.373 904.196 877.007Q906.244 869.642 908.063 862.216Q909.882 854.79 911.469 847.312Q913.057 839.833 914.412 832.309Q915.768 824.785 916.889 817.222Q918.01 809.66 918.896 802.066Q919.783 794.473 920.433 786.855Q921.083 779.238 921.497 771.604Q921.911 763.97 922.088 756.326Q922.265 748.683 922.205 741.038Q922.145 733.393 921.848 725.754Q921.551 718.114 921.017 710.488Q920.483 702.861 919.713 695.255Q918.943 687.649 917.938 680.07Q916.932 672.491 915.692 664.947C909.817 631.288 894.622 575.139 865.279 554.808C858.208 549.909 849.963 547.489 841.377 549.062C828.865 551.355 819.121 561.614 812.298 571.712C781.352 617.516 772.995 692.493 772.952 746.522Q773.135 775.397 776.055 804.125C777.227 816.141 778.268 828.332 780.564 840.196C779.489 840.336 778.647 840.264 777.577 840.097Z"/>
	<path fill="#4B71BE" d="M305.354 125.632C314.321 124.917 322.688 126.468 330.133 131.701Q330.91 132.254 331.658 132.844Q332.406 133.435 333.124 134.062Q333.841 134.689 334.527 135.351Q335.213 136.013 335.865 136.708Q336.517 137.404 337.133 138.131Q337.75 138.857 338.329 139.614Q338.909 140.371 339.45 141.155Q339.991 141.94 340.493 142.75Q340.994 143.561 341.455 144.395Q341.915 145.23 342.334 146.086Q342.752 146.942 343.128 147.818Q343.503 148.695 343.835 149.588Q344.166 150.482 344.452 151.391Q344.739 152.3 344.98 153.222Q345.221 154.144 345.415 155.077Q345.61 156.01 345.758 156.952C347.409 167.028 344.585 176.987 338.552 185.158C332.166 193.806 324.062 197.779 313.622 199.346C304.668 200.268 295.284 198.183 287.851 193.038Q287.108 192.517 286.391 191.96Q285.675 191.403 284.987 190.811Q284.299 190.218 283.641 189.593Q282.983 188.967 282.357 188.31Q281.731 187.653 281.139 186.965Q280.546 186.278 279.989 185.561Q279.431 184.845 278.909 184.102Q278.388 183.359 277.904 182.592Q277.42 181.824 276.975 181.033Q276.529 180.242 276.124 179.43Q275.718 178.618 275.354 177.786Q274.989 176.955 274.666 176.107Q274.343 175.259 274.063 174.395Q273.782 173.532 273.545 172.656Q273.307 171.78 273.114 170.893Q272.92 170.006 272.771 169.111C271.047 159.202 273.719 149.096 279.505 140.943C285.912 131.913 294.609 127.434 305.354 125.632Z"/>
	<path fill="#FEFEFE" d="M305.51 128.653Q306.232 128.56 306.957 128.499Q307.683 128.438 308.41 128.409Q309.138 128.38 309.866 128.383Q310.594 128.386 311.321 128.421Q312.048 128.456 312.773 128.523Q313.498 128.59 314.219 128.688Q314.94 128.787 315.656 128.918Q316.372 129.048 317.082 129.21Q317.792 129.372 318.494 129.565Q319.196 129.757 319.889 129.981Q320.581 130.205 321.264 130.458Q321.946 130.712 322.616 130.996Q323.287 131.28 323.944 131.593Q324.601 131.905 325.244 132.247Q325.887 132.588 326.514 132.958Q327.142 133.327 327.752 133.724C335.489 138.834 340.986 147.548 342.71 156.618C344.456 165.802 342.19 174.804 336.862 182.418C331.067 190.699 323.318 194.579 313.558 196.349C305.595 197.319 297.417 195.765 290.702 191.286Q289.998 190.807 289.318 190.295Q288.639 189.783 287.985 189.238Q287.331 188.693 286.704 188.117Q286.077 187.542 285.479 186.936Q284.88 186.331 284.312 185.697Q283.744 185.063 283.207 184.402Q282.67 183.742 282.166 183.056Q281.662 182.37 281.192 181.661Q280.721 180.951 280.286 180.22Q279.851 179.488 279.451 178.737Q279.052 177.985 278.689 177.215Q278.327 176.445 278.002 175.658Q277.678 174.871 277.391 174.07Q277.105 173.268 276.858 172.453Q276.611 171.639 276.404 170.813Q276.197 169.988 276.03 169.153C274.227 159.933 276.705 150.262 281.99 142.581C287.604 134.421 295.974 130.346 305.51 128.653Z"/>
	<path fill="#4B71BE" d="M849.076 819.927C849.631 825.243 849.401 830.659 849.386 835.998C849.352 847.526 848.978 859.263 849.545 870.773C849.834 876.644 851.604 882.239 852.526 888.01C853.484 894.005 853.108 900.006 852.761 906.031L699.592 906.048C700.997 901.479 700.154 895.809 700.75 891.029C702.268 878.849 709.909 864.939 718.574 856.36C736.893 838.222 753.956 839.971 777.577 840.097C778.647 840.264 779.489 840.336 780.564 840.196C801.324 839.643 819.472 839.434 835.647 854.837C840.312 859.28 842.644 864.716 846.58 869.619C846.905 870.759 847.122 871.35 847.965 872.196L848.841 871.952C849.59 866.712 849.013 860.688 848.986 855.358C848.927 843.558 848.785 831.724 849.076 819.927Z"/>
	<path fill="#010101" d="M744.365 117.708Q746.031 117.583 747.702 117.537Q749.372 117.491 751.043 117.524Q752.714 117.558 754.381 117.671Q756.048 117.784 757.708 117.976Q759.368 118.168 761.017 118.439Q762.666 118.71 764.301 119.059Q765.935 119.408 767.551 119.834Q769.167 120.261 770.76 120.763Q772.354 121.266 773.922 121.844Q775.49 122.422 777.029 123.074Q778.568 123.725 780.074 124.45Q781.58 125.174 783.049 125.969Q784.519 126.764 785.95 127.628Q787.38 128.492 788.768 129.423Q790.155 130.354 791.497 131.35Q792.839 132.346 794.132 133.405C808.347 145.002 817.98 162.671 819.655 180.964Q819.819 182.752 819.893 184.545Q819.968 186.339 819.954 188.134Q819.94 189.93 819.836 191.722Q819.733 193.514 819.541 195.299Q819.348 197.084 819.068 198.857Q818.787 200.63 818.419 202.387Q818.051 204.145 817.596 205.881Q817.141 207.618 816.6 209.33Q816.06 211.042 815.435 212.725Q814.81 214.408 814.102 216.058Q813.395 217.708 812.606 219.32Q811.817 220.933 810.95 222.505Q810.082 224.076 809.137 225.603Q808.193 227.13 807.174 228.608Q806.154 230.085 805.063 231.511Q803.972 232.936 802.811 234.306C790.001 249.567 772.761 257.456 753.087 259.187C752.765 259.223 752.443 259.264 752.12 259.295C735.239 260.921 716.263 253.344 703.379 242.83C688.669 230.827 679.837 213.866 678.016 195.009Q677.857 193.278 677.783 191.542Q677.71 189.806 677.722 188.068Q677.734 186.33 677.832 184.595Q677.93 182.86 678.114 181.132Q678.297 179.404 678.566 177.687Q678.834 175.97 679.187 174.268Q679.54 172.566 679.976 170.884Q680.413 169.202 680.932 167.544Q681.45 165.885 682.051 164.254Q682.651 162.623 683.33 161.024Q684.01 159.424 684.768 157.86Q685.526 156.296 686.36 154.772Q687.194 153.247 688.102 151.766Q689.011 150.284 689.991 148.849Q690.971 147.414 692.021 146.029Q693.071 144.644 694.188 143.313C707.056 127.894 724.511 119.467 744.365 117.708Z"/>
	<path fill="#FEFEFE" d="M743.308 120.69C743.374 120.678 743.439 120.662 743.506 120.655Q745.112 120.499 746.724 120.422Q748.336 120.345 749.949 120.345Q751.563 120.346 753.175 120.426Q754.787 120.505 756.393 120.663Q757.999 120.82 759.595 121.055Q761.191 121.291 762.774 121.603Q764.358 121.916 765.924 122.305Q767.49 122.694 769.035 123.159Q770.58 123.624 772.101 124.163Q773.622 124.702 775.115 125.315Q776.608 125.927 778.069 126.611Q779.531 127.296 780.957 128.05Q782.384 128.805 783.772 129.628Q785.16 130.45 786.506 131.34Q787.853 132.229 789.154 133.183Q790.456 134.136 791.71 135.152C805.362 146.038 814.787 162.783 816.671 180.17C818.629 198.243 812.767 217.22 801.384 231.361C789.412 246.234 772.892 254.183 754.123 256.26C738.067 258.18 719.466 251.628 706.859 241.844Q705.536 240.831 704.264 239.754Q702.993 238.677 701.777 237.538Q700.561 236.398 699.403 235.2Q698.245 234.002 697.148 232.747Q696.051 231.493 695.018 230.185Q693.985 228.878 693.018 227.52Q692.052 226.163 691.154 224.759Q690.256 223.355 689.429 221.909Q688.602 220.462 687.848 218.976Q687.094 217.49 686.415 215.968Q685.736 214.446 685.133 212.893Q684.531 211.339 684.007 209.757Q683.482 208.175 683.037 206.57Q682.592 204.964 682.228 203.338Q681.863 201.712 681.58 200.069Q681.297 198.427 681.096 196.773C678.833 178.243 684.13 160.944 695.677 146.384C707.78 131.124 724.158 122.976 743.308 120.69Z"/>
	<path fill="#FEFEFE" d="M780.564 840.196C778.268 828.332 777.227 816.141 776.055 804.125Q773.136 775.397 772.952 746.522C772.995 692.493 781.352 617.516 812.298 571.712C819.121 561.614 828.865 551.355 841.377 549.062C849.963 547.489 858.208 549.909 865.279 554.808C894.622 575.139 909.817 631.288 915.692 664.947Q916.932 672.491 917.938 680.07Q918.943 687.649 919.713 695.255Q920.483 702.861 921.017 710.488Q921.551 718.114 921.848 725.754Q922.145 733.393 922.205 741.038Q922.265 748.683 922.088 756.326Q921.911 763.97 921.497 771.604Q921.083 779.238 920.433 786.855Q919.783 794.473 918.896 802.066Q918.01 809.66 916.889 817.222Q915.768 824.785 914.413 832.309Q913.057 839.833 911.47 847.312Q909.882 854.79 908.063 862.216Q906.244 869.642 904.196 877.007Q902.147 884.373 899.872 891.672Q897.596 898.97 895.095 906.195Q873.929 905.932 852.761 906.031C853.108 900.006 853.484 894.005 852.526 888.01C851.604 882.239 849.834 876.644 849.545 870.773C848.978 859.263 849.352 847.526 849.386 835.998C849.401 830.659 849.631 825.243 849.076 819.927C848.785 831.724 848.927 843.558 848.986 855.358C849.013 860.688 849.59 866.712 848.841 871.952L847.965 872.196C847.122 871.35 846.905 870.759 846.58 869.619C842.644 864.716 840.312 859.28 835.647 854.837C819.472 839.434 801.324 839.643 780.564 840.196Z"/>
	<path fill="#010101" d="M846.222 738.267C847.086 723.726 846.389 708.823 846.332 694.25L846.215 618.7C846.216 609.336 845.685 599.7 846.154 590.364C846.246 588.527 846.462 586.735 847.363 585.113L848.009 585.234C848.693 586.977 848.963 588.699 849.076 590.568C849.718 601.224 849.135 612.278 849.135 622.97L849.177 690.081C854.25 684.873 884.444 653.728 887.818 653.422L888.18 654.146C887.047 658.04 854.737 687.839 849.113 693.731C849.175 722.456 848.696 751.192 848.979 779.913Q850.677 777.94 852.467 776.049C858.697 769.502 865.781 763.698 872.286 757.415C879.047 750.885 885.685 743.259 892.977 737.392C893.98 736.585 894.259 736.39 895.498 736.353L895.854 737.276C894.725 740.834 855.305 777.4 849.063 783.666L849.076 819.927C848.785 831.724 848.927 843.558 848.986 855.358C849.013 860.688 849.59 866.712 848.841 871.952L847.965 872.196C847.122 871.35 846.905 870.759 846.58 869.619Q846.357 847.779 846.425 825.939C839.6 818.729 800.768 783.155 799.874 778.17L800.535 777.56C800.954 777.622 801.411 777.562 801.792 777.747C802.902 778.286 841.928 817.876 846.45 822.269L846.243 742.229C837.612 734.889 829.619 726.152 821.483 718.251C815.843 712.773 809.518 707.67 804.131 702C803.26 701.083 802.55 700.036 802.073 698.863C801.628 697.769 801.649 698.243 802.053 697.195C805.93 698.212 840.097 732.493 846.222 738.267Z"/>
	<path fill="#010101" d="M535.614 261.102C538 263.35 539.314 266.209 539.502 269.497C539.751 273.862 537.839 278.201 534.886 281.351C530.353 286.185 523.954 287.103 517.747 288.085C521.19 293.084 523.192 298.206 521.963 304.385C520.924 309.615 517.698 314.076 513.236 316.943C510.998 318.382 508.494 319.325 505.909 319.922L506.19 336.986C515.96 337.019 525.747 337.171 535.515 337.069C535.549 333.365 534.966 328.776 537.082 325.561C540.08 323.759 559.39 324.225 563.087 325.121C563.907 325.32 563.941 325.358 564.607 325.635C566.491 329.45 565.091 335.868 565.222 340.118C576.928 342.972 588.901 352.799 595.184 362.956C600.677 371.834 603.569 382.298 606.94 392.116C610.187 401.575 613.688 411.036 616.628 420.591C621.118 435.182 624.711 450.232 628.66 464.989C631.215 474.54 634.636 484.215 636.073 493.995C636.713 498.348 636.603 502.251 635.56 506.545C633.506 514.996 628.38 522.08 620.9 526.554C614.035 530.661 605.374 532.549 597.526 530.644C590.902 529.035 585.236 525.289 580.543 520.438L580.422 527.912C579.746 533.774 580.028 539.849 580.031 545.748L580.103 574.955C580.114 579.535 580.719 585.087 579.957 589.529C578.594 589.58 578.463 589.223 577.363 588.495C570.273 587.026 552.38 587.932 544.304 587.904C542.144 581.463 539.84 575.029 537.885 568.524C539.566 568.492 541.704 568.707 543.174 567.859C545.137 561.224 542.199 553.895 542.032 547.139C541.635 530.997 542.306 514.815 541.788 498.672L465.237 498.58C465.212 515.115 466.01 531.875 465.308 548.373C465.127 552.648 462.023 565.053 463.904 568.065L465.384 568.817C465.259 575.039 460.804 582.283 459.205 588.361C451.339 588.276 443.434 588.054 435.574 588.373L433.028 589.769C432.479 566.457 433.035 543.025 433.081 519.703C433.102 508.813 433.496 497.705 432.703 486.846C424.885 496.866 420.915 509.787 411.209 518.239C404.415 524.155 395.086 526.764 386.176 526.043Q385.37 525.977 384.569 525.87Q383.768 525.764 382.973 525.617Q382.178 525.471 381.392 525.285Q380.605 525.099 379.829 524.874Q379.052 524.649 378.288 524.385Q377.524 524.122 376.774 523.82Q376.024 523.519 375.291 523.18Q374.557 522.841 373.841 522.467Q373.124 522.092 372.428 521.682Q371.732 521.271 371.057 520.827Q370.382 520.382 369.73 519.905Q369.078 519.427 368.45 518.917Q367.823 518.407 367.222 517.867Q366.621 517.326 366.048 516.757Q365.474 516.187 364.93 515.589Q364.386 514.991 363.873 514.367C357.604 506.77 354.924 496.54 355.923 486.796C356.358 482.554 358.472 478.086 360.354 474.312C365.099 464.798 370.884 455.653 376.137 446.405L405.067 395.524L420.788 367.809C423.814 362.46 426.653 356.588 430.391 351.698C435.189 345.419 441.723 342.679 447.636 337.855L448.108 337.463C455.141 336.9 462.301 337.109 469.355 337.088L503.075 337.01L502.975 320.209C495.119 319.301 490.705 317.044 485.192 311.41C483.004 307.327 481.465 303.152 482.17 298.446C482.901 293.573 485.904 288.203 489.953 285.331C497.656 279.867 506.905 282.98 515.29 284.163C520.668 284.921 526.888 283.981 531.243 280.566C541.319 272.666 534.262 267.557 535.441 261.626C535.477 261.445 535.557 261.277 535.614 261.102Z"/>
	<path fill="#FEFEFE" d="M497.857 285.596C502.18 285.289 506.829 284.881 510.909 286.601Q511.574 286.885 512.208 287.235Q512.841 287.585 513.435 287.997Q514.03 288.409 514.58 288.879Q515.13 289.349 515.63 289.872Q516.13 290.395 516.575 290.965Q517.02 291.536 517.405 292.148Q517.79 292.761 518.111 293.409Q518.432 294.058 518.686 294.735C520.157 298.654 519.78 303.031 518.003 306.784C515.68 311.686 511.684 314.62 506.672 316.365C502.493 317.112 498.9 317.16 494.917 315.366C490.635 313.437 487.102 309.773 485.621 305.284Q485.375 304.537 485.208 303.768Q485.041 303 484.954 302.218Q484.867 301.436 484.862 300.649Q484.856 299.863 484.932 299.08Q485.008 298.297 485.164 297.526Q485.32 296.755 485.555 296.005Q485.79 295.254 486.101 294.532Q486.413 293.809 486.797 293.123C489.282 288.747 493.194 286.85 497.857 285.596Z"/>
	<path fill="#FEFEFE" d="M445.014 342.971C445.042 342.996 445.074 343.017 445.097 343.047C446.345 344.643 445.466 356.458 445.447 359.307C441.33 359.98 437.69 360.695 434.561 363.709C432.774 365.429 431.506 367.742 430.905 370.14C429.05 377.552 430.345 400.508 430.41 409.269C425.776 414.618 421.824 421.045 417.747 426.84C410.169 425.55 401.832 425.558 394.123 425.292L392.273 424.972L392.134 424.318C394.709 418.744 398.087 413.48 401.123 408.145L416.824 380.638C421.866 371.89 426.291 361.944 432.508 353.982C436.054 349.439 440.264 346.161 445.014 342.971Z"/>
	<path fill="#4B71BE" d="M500.413 352.212C505.648 352.056 510.345 353.133 514.845 355.899C520.519 359.388 525.13 365.112 526.428 371.733C527.707 378.254 525.877 384.992 522.059 390.349C517.565 396.655 511.659 399.667 504.193 400.858C498.2 400.878 493.042 399.683 488.106 396.13C482.508 392.101 478.718 386.064 477.829 379.194C477.021 372.948 478.759 366.349 482.708 361.417C487.158 355.862 493.464 352.98 500.413 352.212Z"/>
	<path fill="#010101" d="M497.727 358.092C501.897 357.628 505.86 357.82 509.726 359.583Q510.165 359.785 510.592 360.01Q511.02 360.235 511.435 360.481Q511.851 360.727 512.253 360.994Q512.656 361.261 513.044 361.548Q513.433 361.835 513.806 362.141Q514.179 362.448 514.536 362.773Q514.893 363.098 515.233 363.441Q515.573 363.784 515.895 364.144Q516.217 364.504 516.521 364.88Q516.824 365.256 517.107 365.647Q517.391 366.038 517.655 366.442Q517.918 366.847 518.16 367.265Q518.403 367.683 518.624 368.112Q518.844 368.542 519.043 368.982Q519.242 369.422 519.417 369.872Q519.593 370.322 519.746 370.78Q520.028 371.629 520.223 372.502Q520.419 373.375 520.526 374.264Q520.634 375.152 520.652 376.046Q520.67 376.941 520.599 377.833Q520.528 378.725 520.368 379.605Q520.208 380.486 519.961 381.345Q519.714 382.205 519.382 383.036Q519.05 383.867 518.637 384.661C515.954 389.718 511.447 392.295 506.179 393.948C501.883 394.12 498.269 394.136 494.25 392.294Q493.838 392.109 493.436 391.904Q493.035 391.699 492.644 391.474Q492.253 391.249 491.874 391.004Q491.494 390.76 491.128 390.496Q490.762 390.233 490.409 389.951Q490.057 389.67 489.719 389.371Q489.381 389.072 489.058 388.757Q488.736 388.441 488.43 388.11Q488.123 387.778 487.834 387.432Q487.545 387.085 487.274 386.725Q487.003 386.364 486.75 385.991Q486.497 385.617 486.264 385.231Q486.03 384.845 485.816 384.448Q485.602 384.05 485.409 383.643Q485.215 383.235 485.042 382.819Q484.87 382.402 484.718 381.977C483.133 377.392 483.586 372.298 485.713 367.96C488.236 362.813 492.456 359.904 497.727 358.092Z"/>
	<path fill="#FEFEFE" d="M499.734 360.61C503.002 360.439 506.088 360.952 509.031 362.442Q509.746 362.803 510.42 363.236Q511.094 363.668 511.721 364.167Q512.347 364.666 512.919 365.227Q513.492 365.787 514.004 366.403Q514.516 367.019 514.962 367.684Q515.409 368.349 515.785 369.056Q516.161 369.763 516.463 370.504Q516.765 371.246 516.99 372.015Q517.212 372.774 517.355 373.551Q517.499 374.329 517.563 375.117Q517.628 375.905 517.612 376.696Q517.596 377.486 517.501 378.271Q517.405 379.056 517.23 379.827Q517.056 380.598 516.804 381.348Q516.552 382.097 516.226 382.817Q515.9 383.538 515.502 384.221C513.011 388.436 509.475 390.273 504.921 391.525C501.506 391.634 498.591 391.437 495.474 389.907C491.603 388.006 488.539 384.622 487.295 380.462C486.157 376.655 486.465 372.492 488.377 368.982C490.819 364.499 494.98 362.038 499.734 360.61Z"/>
	<path fill="#FEFEFE" d="M552.062 363.093C555.616 362.925 558.923 362.947 562.224 364.513C564.957 365.81 567.795 368.318 568.746 371.267C571.77 380.645 570.301 396.445 570.546 406.707C570.659 411.444 571.324 416.354 571.048 421.068C570.96 422.569 570.79 423.841 570.069 425.172C567.917 429.142 563.498 431.115 559.383 432.353C554.765 433.099 550.312 433.513 546.092 430.973C542.713 428.939 540.659 425.763 539.833 421.967C538.271 414.792 538.196 383.141 539.203 375.129C539.473 372.985 539.91 371.076 541.143 369.269C543.776 365.409 547.652 363.962 552.062 363.093Z"/>
	<path fill="#FEFEFE" d="M567.746 344.072Q571.938 345.451 575.77 347.638C593.906 357.934 598.977 377.742 605.305 396.07C608.601 405.618 612.265 415.291 614.882 425.042C604.124 426.171 592.851 425.581 582.029 425.592C579.659 420.835 578.228 417.422 573.244 414.959C572.837 402.699 573.635 390.311 572.907 378.086C572.24 366.874 569.877 355.107 567.746 344.072Z"/>
	<path fill="#4B71BE" d="M449.145 340.043C461.54 339.912 559.193 339.5 561.838 341.102C566.013 343.63 567.602 360.786 568.378 365.339C564.751 362.434 561.069 360.458 556.331 360.221C550.969 359.952 544.883 361.539 540.961 365.352C538.584 367.663 537.138 370.585 536.447 373.808C534.722 381.856 535.947 404.835 536.024 414.442C513.186 415.554 490.225 415.476 467.362 415.556C467.061 410.759 467.092 405.93 467.028 401.125C466.883 393.442 466.251 386.565 469.49 379.37C470.254 381.726 470.995 384.114 471.942 386.403C475.447 394.873 482.414 402.73 491.027 406.183C498.617 409.227 507.69 408.753 515.089 405.359C522.955 401.752 528.854 394.645 531.754 386.577C534.445 379.09 534.309 369.347 530.72 362.18C527.028 354.807 519.662 348.194 511.729 345.85C503.622 343.455 493.74 344.279 486.288 348.324C477.4 353.149 473.007 360.929 470.136 370.309C468.843 368.079 467.521 365.867 465.645 364.069C460.473 359.11 454.54 359.315 447.858 359.413C447.87 352.933 448.539 346.488 449.145 340.043Z"/>
	<path fill="#FEFEFE" d="M574.794 419.312C577.471 421.838 578.759 425.869 580.578 429.002C582.965 433.112 585.709 437.024 588.109 441.147C592.141 448.074 605.412 473.321 609.289 477.063C610.483 477.215 610.405 477.137 611.38 476.403C611.384 476.025 611.473 475.637 611.391 475.268C611.342 475.048 586.577 432.809 584.148 428.803C594.626 428.367 605.162 428.402 615.649 428.256C621.702 448.364 627.391 468.885 632.434 489.266C633.764 495.278 634.235 501.681 632.423 507.647C630.087 515.338 624.22 521.975 617.068 525.562C610.435 528.889 602.501 529.627 595.456 527.165C591.002 525.608 586.074 522.456 583.131 518.691C576.017 509.59 570.429 495.704 565.075 485.219C556.588 468.597 547.703 452.183 539.414 435.458C548.233 435.044 558.481 437.457 566.393 432.532C571.391 429.421 573.407 424.767 574.794 419.312Z"/>
	<path fill="#FEFEFE" d="M451.023 361.728C452.639 361.683 454.445 361.93 456.034 362.268C459.978 363.106 463.655 365.454 465.858 368.861Q466.353 369.611 466.727 370.428Q467.101 371.244 467.345 372.109Q467.59 372.973 467.7 373.865Q467.809 374.756 467.781 375.654C467.654 379.851 464.804 383.382 464.418 387.496C463.45 397.828 466.613 409.675 463.993 419.773C463 423.598 460.844 426.902 457.365 428.884C455.275 430.075 452.875 430.676 450.484 430.83C443.209 431.3 441.173 427.21 435.054 425.813C434.074 425.59 434.496 425.535 433.653 426.052C433.71 427.228 434.012 427.822 434.826 428.693C440.316 434.565 457.97 433.665 465.327 433.617C453.575 451.957 440.599 469.519 428.514 487.641C422.305 496.95 418.012 507.509 410.233 515.708C407.722 518.354 403.155 520.476 399.731 521.666C391.872 524.397 383.476 524.041 375.992 520.303C367.288 515.957 362.788 509.283 359.749 500.263Q359.543 499.449 359.356 498.63Q359.131 497.68 358.969 496.718Q358.806 495.756 358.706 494.785Q358.606 493.814 358.569 492.839Q358.532 491.864 358.559 490.888Q358.585 489.913 358.674 488.941Q358.764 487.969 358.916 487.005Q359.068 486.041 359.282 485.089Q359.497 484.137 359.772 483.201C362.223 474.927 367.973 466.631 372.209 459.103C378.032 448.754 383.688 438.253 389.94 428.157C398.601 428.382 407.244 428.605 415.878 429.348Q405.307 443.829 395.385 458.762C393.229 461.94 390.601 464.752 388.665 468.075C387.487 470.097 386.469 472.138 386.019 474.45L386.795 474.742L386.104 475.058L386.038 474.478C386.95 474.249 387.555 474.041 388.235 473.357C392.154 469.418 395.582 463.357 398.787 458.731Q408.957 444.095 419.342 429.611C423.741 423.44 428.026 416.588 433.397 411.226C432.942 404.362 433.328 397.22 433.294 390.326C433.266 384.614 432.645 378.203 433.44 372.574C433.728 370.54 434.423 368.508 435.718 366.89C439.371 362.327 445.709 362.194 451.023 361.728Z"/>
	<path fill="#FEFEFE" d="M467.481 418.513Q501.778 417.649 536.086 417.53C537.146 423.975 539.137 427.677 543.299 432.638C540.834 432.535 538.202 432.175 535.823 432.919L535.279 433.718C537.242 438.792 540.494 443.884 542.946 448.828Q554.436 471.953 566.6 494.73C570.132 501.42 575.274 509.205 577.174 516.445C578.283 520.671 577.859 580.281 577.363 588.495C570.273 587.026 552.38 587.932 544.304 587.904C542.144 581.463 539.84 575.029 537.885 568.524C539.566 568.492 541.704 568.707 543.174 567.859C545.137 561.224 542.199 553.895 542.032 547.139C541.635 530.997 542.306 514.815 541.788 498.672L465.237 498.58C465.212 515.115 466.01 531.875 465.308 548.373C465.127 552.648 462.023 565.053 463.904 568.065L465.384 568.817C465.259 575.039 460.804 582.283 459.205 588.361C451.339 588.276 443.434 588.054 435.574 588.373C435.319 553.149 436.411 517.91 435.775 482.687C440.724 474.459 471.435 432.119 472.204 428.851L472.058 428.315C470.494 428.234 469.888 428.643 468.658 429.651C468.106 430.103 467.624 430.682 467.15 431.209L459.764 431.403C463.962 427.405 465.945 424.103 467.481 418.513Z"/>
	<path fill="#010101" d="M465.237 498.58L541.788 498.672C542.306 514.815 541.635 530.997 542.032 547.139C542.199 553.895 545.137 561.224 543.174 567.859C541.704 568.707 539.566 568.492 537.885 568.524C539.84 575.029 542.144 581.463 544.304 587.904L567.965 662.938C571.781 674.978 574.738 687.827 579.959 699.338C581.677 708.909 585.702 718.602 588.645 727.889C596.469 752.571 604.939 776.994 613.184 801.534C620.543 823.438 627.812 845.49 634.762 867.527C638.781 880.269 642.314 893.493 646.859 906.018C652.037 906.048 671.865 905.106 675.691 906.394C676.764 906.755 676.892 906.752 677.44 907.781C676.525 908.592 676.108 908.728 674.881 908.95C670.17 909.802 664.478 909.232 659.651 909.237L628.041 909.205L514.75 909.236L77.2324 909.248C74.7692 909.242 70.0124 909.384 68.0248 907.959C72.4687 904.869 101.089 906.325 108.002 906.258C112.581 901.652 116.733 896.475 121.062 891.619Q135.684 875.415 149.94 858.889L213.902 786.527C225.607 773.114 237.05 758.805 249.662 746.269C257.71 754.058 264.995 763.355 272.447 771.75C284.364 785.176 296.737 798.492 308.218 812.267C309.434 813.726 310.79 815.291 311.34 817.129L310.913 817.735L309.785 817.635C306.668 815.85 255.993 757.99 250.16 750.525C241.15 759.32 232.836 769.114 224.573 778.616L194.858 812.767L112.472 906.16L357.162 906.142C362.239 886.118 369.383 866.457 375.584 846.753L415.214 722.632Q420.743 705.084 426.601 687.643C428.911 680.758 432.471 672.908 433.381 665.759C432.259 658.952 432.929 651.124 432.887 644.214L433.028 589.769L435.574 588.373C443.434 588.054 451.339 588.276 459.205 588.361C460.804 582.283 465.259 575.039 465.384 568.817L463.904 568.065C462.023 565.053 465.127 552.648 465.308 548.373C466.01 531.875 465.212 515.115 465.237 498.58Z"/>
	<path fill="#FEFEFE" d="M489.811 823.631L496.153 823.407L496.384 823.807C496.915 830.801 497.043 902.334 496.371 904.678C495.132 905.484 494.723 905.426 493.222 905.494C493.001 905.346 492.69 905.282 492.56 905.051C491.611 903.363 492.067 858.416 492.112 853.447C492.154 848.833 493.139 839.267 491.745 835.304L490.375 834.658C489.02 832.453 489.788 826.265 489.811 823.631Z"/>
	<path fill="#FEFEFE" d="M474.476 568.648Q485.466 568.575 496.455 568.696L496.48 587.668L468.277 587.511C470.544 581.274 472.455 574.964 474.476 568.648Z"/>
	<path fill="#FEFEFE" d="M438.663 824.031C454.592 823.812 470.55 824.009 486.482 824.004L486.436 834.9C470.486 835.009 454.509 834.703 438.555 834.676Q438.552 829.353 438.663 824.031Z"/>
	<path fill="#FEFEFE" d="M521.723 823.905C538.835 823.473 556.038 823.865 573.16 823.896C573.196 827.455 573.144 831.019 573.134 834.578C556.01 834.906 538.813 834.686 521.685 834.611C521.579 831.038 521.648 827.478 521.723 823.905Z"/>
	<path fill="#4B71BE" d="M435.574 588.373C443.434 588.054 451.339 588.276 459.205 588.361C452.722 606.764 447.025 625.357 440.893 643.871C438.555 650.927 436.64 659.123 433.381 665.759C432.259 658.952 432.929 651.124 432.887 644.214L433.028 589.769L435.574 588.373Z"/>
	<path fill="#FEFEFE" d="M504.949 640.576C508.66 640.579 512.409 640.475 516.113 640.669L516.416 767.11L516.305 803.033C516.257 808.857 516.788 815.525 515.685 821.22C516.16 823.344 516.434 823.223 518.158 824.389C519.108 830.159 516.809 835.465 516.734 841.192C516.453 862.6 516.969 884.094 517.066 905.51L505.006 905.519L504.949 640.576Z"/>
	<path fill="#FEFEFE" d="M580.712 729.49Q601.61 794.579 623.595 859.309C628.833 874.691 633.145 890.382 638.941 905.575L619.816 905.687C619.763 899.374 620.985 890.562 616.017 885.868C612.385 882.438 607.009 881.333 602.494 879.532C592.229 875.437 585.323 866.973 584.752 855.819C584.399 848.927 584.643 841.947 584.583 835.041L576.726 834.866C576.716 831.549 576.308 827.617 577.043 824.404C578.137 823.609 579.447 824.398 579.818 822.949C579.895 822.651 579.88 822.337 579.911 822.031C580.581 801.107 580.049 780.048 580.002 759.108C579.98 749.784 578.882 738.59 580.712 729.49Z"/>
	<path fill="#FEFEFE" d="M432.23 697.915C433.18 700.257 434.021 818.107 433.091 821.529C432.739 822.711 433.785 823.824 433.957 825.231C434.341 828.38 434.24 831.551 434.182 834.717C430.754 834.96 427.258 834.896 423.819 834.957C423.559 841.444 423.998 847.957 423.787 854.448C423.385 866.782 416.235 875.009 405.133 879.604C400.594 881.483 395.478 882.849 391.89 886.381C386.774 891.418 387.961 899.521 387.846 906.097L365.512 906.057C372.707 886.343 378.033 865.983 384.271 845.964C387.499 835.604 391.153 825.396 394.477 815.069Q404.169 783.911 414.343 752.908C420.305 734.589 425.716 716.048 432.23 697.915Z"/>
	<path fill="#4B71BE" d="M504.645 568.622Q513.61 568.444 522.575 568.569L528.796 568.522Q532.62 577.996 535.589 587.771C538.759 598.796 542.504 609.643 545.899 620.599Q555.436 652.026 565.595 683.258L575.779 714.136C577.426 719.151 579.52 724.365 580.712 729.49C578.882 738.59 579.98 749.784 580.002 759.108C580.049 780.048 580.581 801.107 579.911 822.031C575.501 820.023 524.1 820.79 515.685 821.22C516.788 815.525 516.257 808.857 516.305 803.033L516.416 767.11L516.113 640.669C512.409 640.475 508.66 640.579 504.949 640.576C504.599 630.888 504.789 621.128 504.731 611.428Q504.476 590.025 504.645 568.622Z"/>
	<path fill="#FEFEFE" d="M522.575 568.569L528.796 568.522Q532.62 577.996 535.589 587.771L505.032 587.911L505.044 569.031C510.823 568.997 516.845 569.353 522.575 568.569Z"/>
	<path fill="#4B71BE" d="M468.277 587.511L496.48 587.668L497.106 764.784L497.065 802.357C497.049 808.635 497.948 817.898 496.384 823.807L496.153 823.407L495.006 822.182C490.145 820.259 440.505 820.538 433.091 821.529C434.021 818.107 433.18 700.257 432.23 697.915L468.277 587.511Z"/>
</svg>
